<svg width="27.000000" height="27.000000" viewBox="0 0 27 27" fill="none" xmlns="http://www.w3.org/2000/svg" xmlns:xlink="http://www.w3.org/1999/xlink">
	<desc>
			Created with Pixso.
	</desc>
	<defs>
		<clipPath id="clip4_54">
			<rect id="dashicons:cart" width="27.000000" height="27.000000" fill="white" fill-opacity="0"/>
		</clipPath>
	</defs>
	<rect id="dashicons:cart" width="27.000000" height="27.000000" fill="#FFFFFF" fill-opacity="0"/>
	<g clip-path="url(#clip4_54)">
		<path id="Vector" d="M8.1001 17.5499L20.25 17.5499C20.9927 17.5499 21.6001 18.1575 21.6001 18.9C21.6001 19.6425 20.9927 20.2499 20.25 20.2499L6.75 20.2499C6.00757 20.2499 5.40015 19.6425 5.40015 18.9L5.40015 5.39996L2.7002 5.39996C1.95752 5.39996 1.3501 4.79248 1.3501 4.04993C1.3501 3.30743 1.95752 2.69995 2.7002 2.69995L6.75 2.69995C7.49268 2.69995 8.1001 3.30743 8.1001 4.04993L8.1001 6.74994L25.6501 6.74994L20.25 16.2L8.1001 16.2L8.1001 17.5499ZM7.42505 21.6C8.54565 21.6 9.4502 22.5045 9.4502 23.6249C9.4502 24.7455 8.54565 25.65 7.42505 25.65C6.30469 25.65 5.40015 24.7455 5.40015 23.6249C5.40015 22.5045 6.30469 21.6 7.42505 21.6ZM19.5752 21.6C20.6956 21.6 21.6001 22.5045 21.6001 23.6249C21.6001 24.7455 20.6956 25.65 19.5752 25.65C18.4546 25.65 17.55 24.7455 17.55 23.6249C17.55 22.5045 18.4546 21.6 19.5752 21.6Z" fill="#FFFFFF" fill-opacity="1.000000" fill-rule="nonzero"/>
	</g>
</svg>
