<svg width="27.000000" height="27.000000" viewBox="0 0 27 27" fill="none" xmlns="http://www.w3.org/2000/svg" xmlns:xlink="http://www.w3.org/1999/xlink">
	<desc>
			Created with Pixso.
	</desc>
	<defs/>
	<path id="Vector" d="M20.2849 18.6942L25.1033 23.5114L23.5115 25.1033L18.6941 20.2849C16.9016 21.7217 14.6724 22.5033 12.375 22.5C6.78589 22.5 2.25 17.964 2.25 12.375C2.25 6.78601 6.78589 2.25 12.375 2.25C17.9641 2.25 22.5 6.78601 22.5 12.375C22.5032 14.6722 21.7217 16.9017 20.2849 18.6942ZM18.0281 17.8594C19.4558 16.3911 20.2532 14.423 20.25 12.375C20.25 8.0235 16.7253 4.5 12.375 4.5C8.02344 4.5 4.5 8.0235 4.5 12.375C4.5 16.7254 8.02344 20.25 12.375 20.25C14.4231 20.2532 16.3911 19.4559 17.8594 18.0281L18.0281 17.8594Z" fill="#FFFFFF" fill-opacity="1.000000" fill-rule="nonzero"/>
</svg>
